<mxfile host="app.diagrams.net" agent="Mozilla/5.0 (Windows NT 10.0; Win64; x64; rv:132.0) Gecko/20100101 Firefox/132.0" version="24.8.4">
  <diagram name="Page-1" id="pjpewN-Yp3IfkavCzUZb">
    <mxGraphModel dx="819" dy="426" grid="1" gridSize="10" guides="1" tooltips="1" connect="1" arrows="1" fold="1" page="1" pageScale="1" pageWidth="827" pageHeight="1169" math="0" shadow="0">
      <root>
        <mxCell id="0" />
        <mxCell id="1" parent="0" />
        <mxCell id="Q1-f9T-6cVv30_R7d4om-7" style="edgeStyle=orthogonalEdgeStyle;rounded=0;orthogonalLoop=1;jettySize=auto;html=1;exitX=0.5;exitY=1;exitDx=0;exitDy=0;entryX=0.5;entryY=0;entryDx=0;entryDy=0;" edge="1" parent="1" source="JSjSHIye_wGC4dCE1tIP-1" target="Q1-f9T-6cVv30_R7d4om-3">
          <mxGeometry relative="1" as="geometry" />
        </mxCell>
        <mxCell id="JSjSHIye_wGC4dCE1tIP-1" value="&lt;div&gt;START&lt;/div&gt;" style="ellipse;whiteSpace=wrap;html=1;labelBackgroundColor=none;" parent="1" vertex="1">
          <mxGeometry x="110" y="20" width="120" height="80" as="geometry" />
        </mxCell>
        <mxCell id="Q1-f9T-6cVv30_R7d4om-9" style="edgeStyle=orthogonalEdgeStyle;rounded=0;orthogonalLoop=1;jettySize=auto;html=1;exitX=0.5;exitY=1;exitDx=0;exitDy=0;entryX=0.5;entryY=0;entryDx=0;entryDy=0;" edge="1" parent="1" source="Q1-f9T-6cVv30_R7d4om-1" target="Q1-f9T-6cVv30_R7d4om-4">
          <mxGeometry relative="1" as="geometry" />
        </mxCell>
        <mxCell id="Q1-f9T-6cVv30_R7d4om-1" value="&lt;div&gt;&lt;div&gt;playerNames[0] =&lt;br&gt;&lt;/div&gt;INPUT &quot;Red enter name: &quot;&lt;/div&gt;" style="shape=parallelogram;perimeter=parallelogramPerimeter;whiteSpace=wrap;html=1;fixedSize=1;" vertex="1" parent="1">
          <mxGeometry x="80" y="220" width="180" height="80" as="geometry" />
        </mxCell>
        <mxCell id="Q1-f9T-6cVv30_R7d4om-8" style="edgeStyle=orthogonalEdgeStyle;rounded=0;orthogonalLoop=1;jettySize=auto;html=1;exitX=0.5;exitY=1;exitDx=0;exitDy=0;entryX=0.5;entryY=0;entryDx=0;entryDy=0;" edge="1" parent="1" source="Q1-f9T-6cVv30_R7d4om-3" target="Q1-f9T-6cVv30_R7d4om-1">
          <mxGeometry relative="1" as="geometry" />
        </mxCell>
        <mxCell id="Q1-f9T-6cVv30_R7d4om-3" value="string[] playerNames = 2" style="rounded=0;whiteSpace=wrap;html=1;" vertex="1" parent="1">
          <mxGeometry x="110" y="130" width="120" height="60" as="geometry" />
        </mxCell>
        <mxCell id="Q1-f9T-6cVv30_R7d4om-10" style="edgeStyle=orthogonalEdgeStyle;rounded=0;orthogonalLoop=1;jettySize=auto;html=1;exitX=0.5;exitY=1;exitDx=0;exitDy=0;entryX=0.5;entryY=0;entryDx=0;entryDy=0;" edge="1" parent="1" source="Q1-f9T-6cVv30_R7d4om-4" target="Q1-f9T-6cVv30_R7d4om-5">
          <mxGeometry relative="1" as="geometry" />
        </mxCell>
        <mxCell id="Q1-f9T-6cVv30_R7d4om-4" value="&lt;div&gt;playerNames[1] =&lt;br&gt;&lt;/div&gt;INPUT &quot;Yellow enter name: &quot;" style="shape=parallelogram;perimeter=parallelogramPerimeter;whiteSpace=wrap;html=1;fixedSize=1;" vertex="1" parent="1">
          <mxGeometry x="80" y="330" width="180" height="80" as="geometry" />
        </mxCell>
        <mxCell id="Q1-f9T-6cVv30_R7d4om-16" style="edgeStyle=orthogonalEdgeStyle;rounded=0;orthogonalLoop=1;jettySize=auto;html=1;exitX=0.5;exitY=1;exitDx=0;exitDy=0;entryX=0.5;entryY=0;entryDx=0;entryDy=0;" edge="1" parent="1" source="Q1-f9T-6cVv30_R7d4om-5" target="Q1-f9T-6cVv30_R7d4om-15">
          <mxGeometry relative="1" as="geometry" />
        </mxCell>
        <mxCell id="Q1-f9T-6cVv30_R7d4om-5" value="&lt;div&gt;boardWidth = 7&lt;/div&gt;&lt;div&gt;boardHeight = 6&lt;/div&gt;&lt;div&gt;characters[] board = boardWidth, boardHeight&lt;br&gt;&lt;/div&gt;" style="rounded=0;whiteSpace=wrap;html=1;" vertex="1" parent="1">
          <mxGeometry x="95" y="460" width="150" height="80" as="geometry" />
        </mxCell>
        <mxCell id="Q1-f9T-6cVv30_R7d4om-18" style="edgeStyle=orthogonalEdgeStyle;rounded=0;orthogonalLoop=1;jettySize=auto;html=1;exitX=0.5;exitY=1;exitDx=0;exitDy=0;entryX=0.5;entryY=0;entryDx=0;entryDy=0;" edge="1" parent="1" source="Q1-f9T-6cVv30_R7d4om-12" target="Q1-f9T-6cVv30_R7d4om-14">
          <mxGeometry relative="1" as="geometry" />
        </mxCell>
        <mxCell id="Q1-f9T-6cVv30_R7d4om-12" value="&lt;div&gt;integer columnSelection&lt;/div&gt;" style="rounded=0;whiteSpace=wrap;html=1;" vertex="1" parent="1">
          <mxGeometry x="96.25" y="630" width="147.5" height="40" as="geometry" />
        </mxCell>
        <mxCell id="Q1-f9T-6cVv30_R7d4om-27" style="edgeStyle=orthogonalEdgeStyle;rounded=0;orthogonalLoop=1;jettySize=auto;html=1;exitX=0.5;exitY=1;exitDx=0;exitDy=0;entryX=0.5;entryY=0;entryDx=0;entryDy=0;" edge="1" parent="1" source="Q1-f9T-6cVv30_R7d4om-14" target="Q1-f9T-6cVv30_R7d4om-24">
          <mxGeometry relative="1" as="geometry" />
        </mxCell>
        <mxCell id="Q1-f9T-6cVv30_R7d4om-14" value="OUTPUT playerNames[currentPlayerIndex] + &quot;please select a column number&quot;" style="shape=parallelogram;perimeter=parallelogramPerimeter;whiteSpace=wrap;html=1;fixedSize=1;" vertex="1" parent="1">
          <mxGeometry x="55" y="700" width="230" height="80" as="geometry" />
        </mxCell>
        <mxCell id="Q1-f9T-6cVv30_R7d4om-17" style="edgeStyle=orthogonalEdgeStyle;rounded=0;orthogonalLoop=1;jettySize=auto;html=1;exitX=0.5;exitY=1;exitDx=0;exitDy=0;entryX=0.5;entryY=0;entryDx=0;entryDy=0;" edge="1" parent="1" source="Q1-f9T-6cVv30_R7d4om-15" target="Q1-f9T-6cVv30_R7d4om-12">
          <mxGeometry relative="1" as="geometry" />
        </mxCell>
        <mxCell id="Q1-f9T-6cVv30_R7d4om-15" value="&lt;div&gt;integer currentPlayerIndex&lt;/div&gt;&amp;nbsp;= 0" style="rounded=0;whiteSpace=wrap;html=1;" vertex="1" parent="1">
          <mxGeometry x="92.5" y="565" width="155" height="40" as="geometry" />
        </mxCell>
        <mxCell id="Q1-f9T-6cVv30_R7d4om-21" style="edgeStyle=orthogonalEdgeStyle;rounded=0;orthogonalLoop=1;jettySize=auto;html=1;exitX=0.5;exitY=0;exitDx=0;exitDy=0;entryX=0;entryY=0.5;entryDx=0;entryDy=0;" edge="1" parent="1" source="Q1-f9T-6cVv30_R7d4om-20" target="Q1-f9T-6cVv30_R7d4om-12">
          <mxGeometry relative="1" as="geometry" />
        </mxCell>
        <mxCell id="Q1-f9T-6cVv30_R7d4om-23" style="edgeStyle=orthogonalEdgeStyle;rounded=0;orthogonalLoop=1;jettySize=auto;html=1;exitX=0.5;exitY=1;exitDx=0;exitDy=0;entryX=0;entryY=0.5;entryDx=0;entryDy=0;" edge="1" parent="1" source="Q1-f9T-6cVv30_R7d4om-20" target="Q1-f9T-6cVv30_R7d4om-14">
          <mxGeometry relative="1" as="geometry" />
        </mxCell>
        <mxCell id="Q1-f9T-6cVv30_R7d4om-20" value="First do while" style="text;html=1;align=center;verticalAlign=middle;whiteSpace=wrap;rounded=0;" vertex="1" parent="1">
          <mxGeometry x="10" y="670" width="60" height="30" as="geometry" />
        </mxCell>
        <mxCell id="Q1-f9T-6cVv30_R7d4om-26" style="edgeStyle=orthogonalEdgeStyle;rounded=0;orthogonalLoop=1;jettySize=auto;html=1;exitX=0.5;exitY=1;exitDx=0;exitDy=0;entryX=0.5;entryY=0;entryDx=0;entryDy=0;" edge="1" parent="1" source="Q1-f9T-6cVv30_R7d4om-24" target="Q1-f9T-6cVv30_R7d4om-25">
          <mxGeometry relative="1" as="geometry" />
        </mxCell>
        <mxCell id="Q1-f9T-6cVv30_R7d4om-24" value="OUTPUT &quot;Enter a number between 1 and 7 inclusive&quot;" style="shape=parallelogram;perimeter=parallelogramPerimeter;whiteSpace=wrap;html=1;fixedSize=1;" vertex="1" parent="1">
          <mxGeometry x="282.5" y="820" width="190" height="50" as="geometry" />
        </mxCell>
        <mxCell id="Q1-f9T-6cVv30_R7d4om-29" style="edgeStyle=orthogonalEdgeStyle;rounded=0;orthogonalLoop=1;jettySize=auto;html=1;exitX=0.5;exitY=1;exitDx=0;exitDy=0;" edge="1" parent="1" source="Q1-f9T-6cVv30_R7d4om-25" target="Q1-f9T-6cVv30_R7d4om-28">
          <mxGeometry relative="1" as="geometry" />
        </mxCell>
        <mxCell id="Q1-f9T-6cVv30_R7d4om-25" value="columnSelection = Integer.Parse(playerNames[currentPlayerIndex] " style="rounded=0;whiteSpace=wrap;html=1;" vertex="1" parent="1">
          <mxGeometry x="247.5" y="910" width="260" height="60" as="geometry" />
        </mxCell>
        <mxCell id="Q1-f9T-6cVv30_R7d4om-45" style="edgeStyle=orthogonalEdgeStyle;rounded=0;orthogonalLoop=1;jettySize=auto;html=1;entryX=1;entryY=0.5;entryDx=0;entryDy=0;" edge="1" parent="1" source="Q1-f9T-6cVv30_R7d4om-28" target="Q1-f9T-6cVv30_R7d4om-24">
          <mxGeometry relative="1" as="geometry">
            <mxPoint x="607.5" y="850" as="targetPoint" />
            <Array as="points">
              <mxPoint x="607.5" y="845" />
            </Array>
          </mxGeometry>
        </mxCell>
        <mxCell id="Q1-f9T-6cVv30_R7d4om-46" value="False" style="edgeLabel;html=1;align=center;verticalAlign=middle;resizable=0;points=[];" vertex="1" connectable="0" parent="Q1-f9T-6cVv30_R7d4om-45">
          <mxGeometry x="-0.0669" y="-2" relative="1" as="geometry">
            <mxPoint as="offset" />
          </mxGeometry>
        </mxCell>
        <mxCell id="Q1-f9T-6cVv30_R7d4om-48" style="edgeStyle=orthogonalEdgeStyle;rounded=0;orthogonalLoop=1;jettySize=auto;html=1;exitX=0.5;exitY=1;exitDx=0;exitDy=0;entryX=0.5;entryY=0;entryDx=0;entryDy=0;" edge="1" parent="1" source="Q1-f9T-6cVv30_R7d4om-28" target="Q1-f9T-6cVv30_R7d4om-36">
          <mxGeometry relative="1" as="geometry" />
        </mxCell>
        <mxCell id="Q1-f9T-6cVv30_R7d4om-49" value="True" style="edgeLabel;html=1;align=center;verticalAlign=middle;resizable=0;points=[];" vertex="1" connectable="0" parent="Q1-f9T-6cVv30_R7d4om-48">
          <mxGeometry x="-0.4102" y="-2" relative="1" as="geometry">
            <mxPoint as="offset" />
          </mxGeometry>
        </mxCell>
        <mxCell id="Q1-f9T-6cVv30_R7d4om-28" value="IS ((columnSelection &amp;lt; boardWidth AND columnSelection &amp;gt;= 0) AND board[0, columnSelection] is not equal to &#39;\0`)" style="rhombus;whiteSpace=wrap;html=1;" vertex="1" parent="1">
          <mxGeometry x="247.5" y="999" width="260" height="140" as="geometry" />
        </mxCell>
        <mxCell id="Q1-f9T-6cVv30_R7d4om-47" style="edgeStyle=orthogonalEdgeStyle;rounded=0;orthogonalLoop=1;jettySize=auto;html=1;exitX=0.5;exitY=1;exitDx=0;exitDy=0;entryX=0.5;entryY=0;entryDx=0;entryDy=0;" edge="1" parent="1" source="Q1-f9T-6cVv30_R7d4om-36" target="Q1-f9T-6cVv30_R7d4om-37">
          <mxGeometry relative="1" as="geometry" />
        </mxCell>
        <mxCell id="Q1-f9T-6cVv30_R7d4om-36" value="OUTPUT &quot;No space in column&quot;" style="shape=parallelogram;perimeter=parallelogramPerimeter;whiteSpace=wrap;html=1;fixedSize=1;" vertex="1" parent="1">
          <mxGeometry x="299.5" y="1180" width="156" height="60" as="geometry" />
        </mxCell>
        <mxCell id="Q1-f9T-6cVv30_R7d4om-37" value="columnSelection = -1" style="rounded=0;whiteSpace=wrap;html=1;" vertex="1" parent="1">
          <mxGeometry x="317.5" y="1280" width="120" height="60" as="geometry" />
        </mxCell>
        <mxCell id="Q1-f9T-6cVv30_R7d4om-50" value="columnSelection &amp;lt; 0" style="rhombus;whiteSpace=wrap;html=1;" vertex="1" parent="1">
          <mxGeometry x="350" y="1360" width="170" height="110" as="geometry" />
        </mxCell>
      </root>
    </mxGraphModel>
  </diagram>
</mxfile>
